<svg width="300" height="300" viewBox="0 0 300 300" fill="none" xmlns="http://www.w3.org/2000/svg">
<path fill-rule="evenodd" clip-rule="evenodd" d="M23.3293 250.597C21.6914 244.491 23.5267 106.163 23.5267 79.1406C23.5267 72.0974 22.5768 55.8209 23.6763 49.8636C24.6139 44.7853 34.6468 35.8429 39.3085 34.6551C46.8844 32.7244 198.126 34.2488 227.999 34.2475C246.475 34.2475 270.686 31.2856 276.588 48.9279C279.016 56.1846 277.413 192.745 277.413 220.005C277.413 233.58 282.766 259.285 261.613 264.478C253.216 266.538 103.411 264.897 72.9409 264.897C65.5359 264.897 46.838 265.756 40.7285 264.751C35.9159 263.957 24.4746 254.872 23.3293 250.597ZM45.6779 21.8648C26.1952 21.6597 9.34091 35.2419 9.18163 53.3092C8.99397 74.4441 9.89551 96.4753 9.89551 117.838C9.89551 160.421 8.3446 205.011 9.3248 247.255C9.72397 264.449 27.3553 277.49 45.4096 278.479L221.179 277.3C231.898 277.345 244.968 278.654 254.436 278.514C272.437 278.243 290.54 265.102 291.581 248.538C292.773 229.595 291.044 204.192 291.044 184.402C291.044 141.052 290.999 97.9133 291.732 54.5944C292.015 37.8942 276.325 21.8719 257.864 21.2264C236.083 20.4661 209.593 21.8648 187.103 21.8648C140.057 21.8648 92.6055 22.3543 45.6779 21.8648Z" fill="url(#paint0_linear)"/>
<path fill-rule="evenodd" clip-rule="evenodd" d="M92.548 167.607C86.6262 160.185 80.5502 126.768 77.3736 115.36C71.288 93.5122 71.1345 72.8887 56.3277 70.0171C47.1158 79.3509 50.789 87.9367 50.789 111.647V204.526C50.789 214.686 45.5985 241.312 58.8692 242.828C63.7405 236.739 61.0114 121.349 61.0114 103.907C69.5656 116.076 76.0181 189.679 90.4161 202.58C102.797 189.568 120.13 99.0729 126.881 95.6358L146.254 93.4883C146.209 111.474 143.725 211.343 147.396 220.476C156.679 223.555 177.803 221.433 188.881 221.621C210.922 221.996 204.142 215.889 204.142 195.239H170.064V156.538H197.327V127.127H170.064V96.1677H200.733V66.756H125.761L92.548 167.607Z" fill="url(#paint1_linear)"/>
<path fill-rule="evenodd" clip-rule="evenodd" d="M240.364 211.867C231.872 201.287 229.667 162.436 214.368 161.183C214.439 164.24 232.931 224.024 241.631 226.199C246.104 221.613 272.197 148.579 272.3 144.154C261.72 145.194 260.829 157.633 254.199 175.697L240.856 211.01C240.771 211.175 240.553 211.595 240.364 211.867Z" fill="url(#paint2_linear)"/>
<path fill-rule="evenodd" clip-rule="evenodd" d="M66.1249 240.13H234.814V233.938H66.1249V240.13Z" fill="#90303B"/>
<path fill-rule="evenodd" clip-rule="evenodd" d="M217.775 226.199H222.886C222.725 219.273 203.056 167.411 199.178 161.05C190.117 163.531 195.573 163.364 205.632 190.791C208.801 199.434 217.589 218.247 217.775 226.199Z" fill="url(#paint3_linear)"/>
<defs>
<linearGradient id="paint0_linear" x1="150.5" y1="21" x2="150.5" y2="278.524" gradientUnits="userSpaceOnUse">
<stop stop-color="#141B31"/>
<stop offset="0.813749" stop-color="#832831"/>
<stop offset="1" stop-color="#9D4A71"/>
</linearGradient>
<linearGradient id="paint1_linear" x1="127.457" y1="66.756" x2="127.457" y2="242.828" gradientUnits="userSpaceOnUse">
<stop stop-color="#141B31"/>
<stop offset="1" stop-color="#852A34"/>
</linearGradient>
<linearGradient id="paint2_linear" x1="243.334" y1="144.154" x2="243.334" y2="226.199" gradientUnits="userSpaceOnUse">
<stop stop-color="#141B31"/>
<stop offset="1" stop-color="#852A34"/>
</linearGradient>
<linearGradient id="paint3_linear" x1="208.729" y1="161.05" x2="208.729" y2="226.199" gradientUnits="userSpaceOnUse">
<stop stop-color="#141B31"/>
<stop offset="1" stop-color="#852A34"/>
</linearGradient>
</defs>
</svg>
